<svg id="english-1" xmlns="http://www.w3.org/2000/svg" viewBox="0 0 24.005 24.005">
  <defs>
    <style>
      .cls-1 {
        fill: #073471;
      }

      .cls-2 {
        fill: #fff;
      }

      .cls-3 {
        fill: #ec1b23;
      }
    </style>
  </defs>
  <path id="路径_480" data-name="路径 480" class="cls-1" d="M12,0A12,12,0,1,1,0,12,12,12,0,0,1,12,0Z" transform="translate(0 0)"/>
  <path id="路径_470" data-name="路径 470" class="cls-2" d="M9.1,12.29,25.578,28.819a11.216,11.216,0,0,0,2.589-2.541L11.641,9.7A12.883,12.883,0,0,0,9.1,12.29Z" transform="translate(-6.735 -7.179)"/>
  <path id="路径_471" data-name="路径 471" class="cls-3" d="M58.7,52.5l.026,1.741,6.341,6.341c.286-.286.572-.572.832-.884Z" transform="translate(-44.857 -40.268)"/>
  <path id="路径_472" data-name="路径 472" class="cls-3" d="M10.7,15.736l7.2,7.225.052-1.663-6.445-6.5C11.22,15.112,10.934,15.424,10.7,15.736Z" transform="translate(-7.919 -11.268)"/>
  <path id="路径_473" data-name="路径 473" class="cls-2" d="M26.152,9.6,9.6,26.152a12.157,12.157,0,0,0,2.565,2.541l16.528-16.5A11.216,11.216,0,0,0,26.152,9.6Z" transform="translate(-7.105 -7.105)"/>
  <path id="路径_474" data-name="路径 474" class="cls-3" d="M15.71,66.943l5.354-5.328.026-1.715L14.8,66.137A9.135,9.135,0,0,0,15.71,66.943Z" transform="translate(-11.238 -45.745)"/>
  <path id="路径_475" data-name="路径 475" class="cls-3" d="M63.718,11.2,58,16.918l.208,1.507,6.419-6.419C64.341,11.746,64.029,11.46,63.718,11.2Z" transform="translate(-44.339 -8.289)"/>
  <path id="路径_476" data-name="路径 476" class="cls-2" d="M0,40.537a14.152,14.152,0,0,0,.393,3.249H23.586a12.918,12.918,0,0,0,.393-3.249A14.32,14.32,0,0,0,23.66,37.6H.319A14.32,14.32,0,0,0,0,40.537Z" transform="translate(0 -28.546)"/>
  <path id="路径_477" data-name="路径 477" class="cls-2" d="M36.8,23.637A13.261,13.261,0,0,0,39.945,24a13.893,13.893,0,0,0,3.041-.344V.344A13.893,13.893,0,0,0,39.945,0,13.1,13.1,0,0,0,36.8.368Z" transform="translate(-27.938 0)"/>
  <path id="路径_478" data-name="路径 478" class="cls-3" d="M40.5,23.833A12.57,12.57,0,0,0,42.657,24a14.172,14.172,0,0,0,2.053-.147V.147A13.556,13.556,0,0,0,42.683,0a12.57,12.57,0,0,0-2.157.172V23.833Z" transform="translate(-30.675 0)"/>
  <path id="路径_479" data-name="路径 479" class="cls-3" d="M0,43.349A13.566,13.566,0,0,0,.2,45.61H23.809a13.812,13.812,0,0,0,.2-2.261,13.028,13.028,0,0,0-.147-1.949H.147A12.525,12.525,0,0,0,0,43.349Z" transform="translate(0 -31.355)"/>
</svg>
