<svg xmlns="http://www.w3.org/2000/svg" viewBox="0 0 14 13">
  <defs>
    <style>
      .cls-1 {
        fill: inherit;
      }
    </style>
  </defs>
  <path id="Home" class="cls-1" d="M782.944,740.1h-.5a.681.681,0,0,1-.436-1.205l5.446-4.514a2.042,2.042,0,0,1,2.614,0l5.446,4.514a.681.681,0,0,1-.436,1.205h-.5a.34.34,0,0,0-.34.34v4.425a2.042,2.042,0,0,1-2.042,2.042h-.681a1.362,1.362,0,0,1-1.362-1.362V743.5a1.362,1.362,0,0,0-1.362-1.362h0a1.362,1.362,0,0,0-1.362,1.362v2.042a1.362,1.362,0,0,1-1.362,1.362h-.681a2.042,2.042,0,0,1-2.042-2.042v-4.425a.34.34,0,0,0-.395-.34Z" transform="translate(-781.758 -733.905)"/>
</svg>
