<svg xmlns="http://www.w3.org/2000/svg" viewBox="0 0 16 16">
  <defs>
    <style>
      .cls-1 {
        fill: #fa5555;
      }
    </style>
  </defs>
  <path id="icon_error" class="cls-1" d="M8,16a8,8,0,1,1,8-8A8.009,8.009,0,0,1,8,16ZM5.345,4.61a.734.734,0,0,0-.52,1.253L6.954,7.992,4.737,10.21a.756.756,0,0,0,1.069,1.068L8.023,9.061l2.142,2.14A.734.734,0,1,0,11.2,10.164L9.061,8.023l2.218-2.218A.756.756,0,0,0,10.21,4.736L7.993,6.953,5.864,4.825A.728.728,0,0,0,5.345,4.61Z" transform="translate(0 0)"/>
</svg>
