<svg xmlns="http://www.w3.org/2000/svg" viewBox="0 0 176.598 40.897">
  <defs>
    <style>
      .cls-1 {
        fill: #95cb41;
      }

      .cls-2 {
        fill: #9fcc43;
      }

      .cls-3 {
        fill: #e5d3a5;
      }

      .cls-4 {
        fill: #f88d2b;
      }
    </style>
  </defs>
  <g id="logo-login" transform="translate(0 0.022)">
    <g id="组_329" data-name="组 329" transform="translate(0.276 1.049)">
      <g id="组_328" data-name="组 328">
        <path id="路径_453" data-name="路径 453" class="cls-1" d="M18,40.8C8.05,39.969.538,31.066.4,20.911A18.969,18.969,0,0,1,18.066,1.575C28.29.74,36.845,9.087,36.706,20.841,36.567,32.665,28.012,41.568,18,40.8Zm.07-38.95A18.948,18.948,0,0,0,.886,20.911C1.025,30.648,8.467,39.2,18.066,39.9c10.224.765,17.667-7.72,17.806-18.988S27.873,1.088,18.066,1.853Z" transform="translate(-0.397 -1.517)"/>
      </g>
    </g>
    <g id="组_331" data-name="组 331" transform="translate(-0.001 1.052)">
      <g id="组_330" data-name="组 330">
        <path id="路径_454" data-name="路径 454" class="cls-2" d="M17.666,41.291C7.651,40.526.139,31.624,0,21.469-.07,11.314,7.372,2.411,17.666,1.576c10.224-.835,19.266,8.068,19.2,19.892C36.724,33.223,27.613,42.126,17.666,41.291Zm.07-38.881C7.929,3.176,3.756,12.5,1.808,22.512,0,32.041,8.068,40.248,17.666,41.013s18.293-8.346,18.362-19.545C36.168,10.2,27.474,1.646,17.736,2.411Z" transform="translate(0.001 -1.522)"/>
      </g>
    </g>
    <g id="组_333" data-name="组 333" transform="translate(0.276 5.843)">
      <g id="组_332" data-name="组 332">
        <path id="路径_455" data-name="路径 455" class="cls-2" d="M17.579,42.693C7.633,41.859.538,34.208.4,25.583S7.355,9.307,17.579,8.473s19.2,6.816,19.127,17.11A17.545,17.545,0,0,1,17.579,42.693Zm.209-31.3C7.98,12.02.538,17.306.677,25.583s7.512,14.606,17.11,15.3S35.8,35.39,35.941,25.583C36.011,15.776,27.595,10.768,17.788,11.394Z" transform="translate(-0.397 -8.41)"/>
      </g>
    </g>
    <g id="组_335" data-name="组 335" transform="translate(1.472 -0.022)">
      <g id="组_334" data-name="组 334">
        <path id="路径_456" data-name="路径 456" class="cls-2" d="M6.626,30.18A18.256,18.256,0,0,1,6.487,6.323c6.19-7.094,17.667-8.833,24.2-2.156,6.608,6.538,7.581,19.684-.07,26.152C22.9,36.718,12.26,36.787,6.626,30.18ZM30.2,4.723C23.945-1.606,13.164-.494,7.461,6.81c-5.564,7.164-5.7,16.554-.278,22.883,5.425,6.26,15.441,6.886,22.257,0C36.256,22.877,36.465,11.052,30.2,4.723Z" transform="translate(-2.117 0.022)"/>
      </g>
    </g>
    <g id="组_337" data-name="组 337" transform="translate(1.916 1.886)">
      <g id="组_336" data-name="组 336">
        <path id="路径_457" data-name="路径 457" class="cls-3" d="M9.116,31.015C2.369,23.225.352,12.514,6.195,6.88a16.681,16.681,0,0,1,23.44,1.391c6.051,6.469,8.833,20.449,2.573,26.639C26.017,41.17,15.863,38.736,9.116,31.015Zm19.2-21.77C21.01,1.872,12.037,2.568,6.89,8.48,1.674,14.392,2.508,21.138,9.116,28.511c6.608,7.3,16.484,11.615,22.4,5.7C37.494,28.233,35.616,16.617,28.313,9.245Z" transform="translate(-2.755 -2.722)"/>
      </g>
    </g>
    <g id="组_346" data-name="组 346" transform="translate(12.544 9.964)">
      <g id="组_338" data-name="组 338" transform="translate(0.143 11.83)">
        <rect id="矩形_628" data-name="矩形 628" class="cls-4" width="2.643" height="2.643" transform="matrix(0.96, -0.281, 0.281, 0.96, 0, 0.744)"/>
      </g>
      <g id="组_339" data-name="组 339" transform="translate(2.236 7.8)">
        <rect id="矩形_629" data-name="矩形 629" class="cls-4" width="2.643" height="2.643" transform="matrix(0.96, -0.281, 0.281, 0.96, 0, 0.744)"/>
      </g>
      <g id="组_340" data-name="组 340" transform="translate(0 1.954)">
        <rect id="矩形_630" data-name="矩形 630" class="cls-4" width="2.643" height="2.643" transform="matrix(0.96, -0.281, 0.281, 0.96, 0, 0.744)"/>
      </g>
      <g id="组_341" data-name="组 341" transform="translate(3.339 0.977)">
        <rect id="矩形_631" data-name="矩形 631" class="cls-4" width="2.643" height="2.643" transform="matrix(0.96, -0.281, 0.281, 0.96, 0, 0.744)"/>
      </g>
      <g id="组_342" data-name="组 342" transform="translate(4.256 4.105)">
        <rect id="矩形_632" data-name="矩形 632" class="cls-4" width="2.643" height="2.643" transform="matrix(0.96, -0.281, 0.281, 0.96, 0, 0.744)"/>
      </g>
      <g id="组_343" data-name="组 343" transform="translate(6.678)">
        <rect id="矩形_633" data-name="矩形 633" class="cls-4" width="2.643" height="2.643" transform="matrix(0.96, -0.281, 0.281, 0.96, 0, 0.744)"/>
      </g>
      <g id="组_344" data-name="组 344" transform="translate(7.595 3.128)">
        <rect id="矩形_634" data-name="矩形 634" class="cls-4" width="2.643" height="2.643" transform="matrix(0.96, -0.281, 0.281, 0.96, 0, 0.744)"/>
      </g>
      <g id="组_345" data-name="组 345" transform="translate(8.492 6.19)">
        <rect id="矩形_635" data-name="矩形 635" class="cls-4" width="2.643" height="2.643" transform="matrix(0.96, -0.281, 0.281, 0.96, 0, 0.744)"/>
      </g>
    </g>
    <g id="组_348" data-name="组 348" transform="translate(60.303 4.027)">
      <g id="组_347" data-name="组 347">
        <path id="路径_458" data-name="路径 458" class="cls-2" d="M86.7,5.8h9.668l7.581,20.171L111.392,5.8h9.529V38.143h-7.3V15.468l-8.972,22.744H102.28L93.238,15.468V38.212H86.7Z" transform="translate(-86.7 -5.8)"/>
      </g>
    </g>
    <g id="组_350" data-name="组 350" transform="translate(99.462 3.471)">
      <g id="组_349" data-name="组 349">
        <path id="路径_459" data-name="路径 459" class="cls-2" d="M143,27.744h7.025c.348,2.921,1.53,5.286,6.329,5.286,3.2,0,5.356-1.739,5.356-4.312s-1.391-3.478-6.121-4.243c-8.277-1.113-11.685-3.547-11.685-9.807C143.9,9.173,148.495,5,155.659,5c7.3,0,11.546,3.269,12.1,9.668h-6.677c-.487-2.921-2.156-4.312-5.356-4.312s-4.869,1.461-4.869,3.686c0,2.3,1.043,3.408,6.051,4.1,7.86.974,11.824,3.13,11.824,9.807,0,5.773-4.73,10.294-12.381,10.294C147.521,38.386,143.417,34.282,143,27.744Z" transform="translate(-143 -5)"/>
      </g>
    </g>
    <g id="组_351" data-name="组 351" transform="translate(45.905 4.097)">
      <rect id="矩形_636" data-name="矩形 636" class="cls-2" width="6.469" height="32.134"/>
    </g>
    <g id="组_352" data-name="组 352" transform="translate(126.701 3.819)">
      <path id="路径_460" data-name="路径 460" class="cls-2" d="M247.338,16.768a49.629,49.629,0,0,0,1.6-11.268A27.058,27.058,0,0,1,237.6,8Z" transform="translate(-199.041 -5.5)"/>
      <path id="路径_461" data-name="路径 461" class="cls-2" d="M238.291,21.959l5.495-2.852L237.8,13.543a5.278,5.278,0,0,1-.835-1.043h-.07a9.166,9.166,0,0,1,.348,1.252Z" transform="translate(-198.828 -7.631)"/>
      <path id="路径_462" data-name="路径 462" class="cls-2" d="M198.325,46.877a7.858,7.858,0,0,0,2.643-.835c2.3-1.182,3.06-2.573,2.226-4.243a1.918,1.918,0,0,0-1.043-1.043,5.622,5.622,0,0,0-1.53-.487c-.556-.07-1.6-.07-3.13-.07a11.37,11.37,0,0,1-4.451-.626,4.362,4.362,0,0,1-2.017-2.017c-.07-.209-.139-.348-.209-.556a20.972,20.972,0,0,0-.417,5.425l-8.207,2.3c-.209,1.6.9.9.9.9l7.581-2.017a40.626,40.626,0,0,0,5.634,3.2A3.944,3.944,0,0,0,198.325,46.877Z" transform="translate(-182.163 -15.091)"/>
      <path id="路径_463" data-name="路径 463" class="cls-2" d="M233.338,19.672l-6.886,3.547.7,5.286-2.365,1.182L222.626,10l1.808-.9c-4.382.139-8.694-.139-13.215,1.53-7.929,2.921-12.033,7.86-14.119,12.45a8.438,8.438,0,0,1,2.017-1.322,9.435,9.435,0,0,1,3.9-1.252l1.182,2.3a7.248,7.248,0,0,0-4.312.9,4.828,4.828,0,0,0-2.156,1.878,2.309,2.309,0,0,0-.07,2.226,2.459,2.459,0,0,0,1.461,1.322,14.845,14.845,0,0,0,3.756.278,11.729,11.729,0,0,1,4.591.556,4.228,4.228,0,0,1,2.3,2.087,4.314,4.314,0,0,1,.139,4.1,7.931,7.931,0,0,1-3.756,3.408,8.157,8.157,0,0,1-.765.348c5.008.974,10.92.209,18.223-4.382,5.564-3.478,8.764-9.459,10.572-15.093Zm-13.424,2.991a6.673,6.673,0,0,1-3.547,3.617l-2.156,1.113,3.13,6.121-2.156,1.113-8.416-16.484,4.66-2.365a6.966,6.966,0,0,1,4.8-.835,5.082,5.082,0,0,1,3.339,2.921A5.342,5.342,0,0,1,219.914,22.663Z" transform="translate(-186.71 -6.596)"/>
      <path id="路径_464" data-name="路径 464" class="cls-2" d="M217.656,21.292,215.5,22.4l3.339,6.538,1.948-.974a4.906,4.906,0,0,0,2.5-2.365,3.72,3.72,0,0,0-.278-3.06C221.969,20.457,220.16,20.04,217.656,21.292Z" transform="translate(-192.313 -10.094)"/>
    </g>
  </g>
</svg>
