<svg xmlns="http://www.w3.org/2000/svg" viewBox="0 0 146.634 33.958">
  <defs>
    <style>
      .cls-1 {
        fill: #95cb41;
      }

      .cls-2 {
        fill: #9fcc43;
      }

      .cls-3 {
        fill: #e5d3a5;
      }

      .cls-4 {
        fill: #f88d2b;
      }
    </style>
  </defs>
  <g id="logo-home" transform="translate(0 0.022)">
    <g id="组_329" data-name="组 329" transform="translate(0.229 0.867)">
      <g id="组_328" data-name="组 328">
        <path id="路径_453" data-name="路径 453" class="cls-1" d="M15.01,34.137C6.752,33.444.514,26.052.4,17.62A15.75,15.75,0,0,1,15.068,1.565c8.49-.693,15.593,6.237,15.478,16C30.43,27.38,23.327,34.773,15.01,34.137ZM15.068,1.8A15.733,15.733,0,0,0,.8,17.62c.116,8.085,6.3,15.189,14.265,15.766,8.49.635,14.669-6.411,14.785-15.766S23.211,1.161,15.068,1.8Z" transform="translate(-0.397 -1.517)"/>
      </g>
    </g>
    <g id="组_331" data-name="组 331" transform="translate(-0.001 0.87)">
      <g id="组_330" data-name="组 330">
        <path id="路径_454" data-name="路径 454" class="cls-2" d="M14.669,34.544C6.352,33.908.115,26.516,0,18.084A16.226,16.226,0,0,1,14.669,1.567c8.49-.693,16,6.7,15.94,16.517C30.493,27.844,22.927,35.237,14.669,34.544ZM14.727,2.26C6.583,2.9,3.118,10.634,1.5,18.951,0,26.863,6.7,33.677,14.669,34.313s15.189-6.93,15.247-16.228C30.031,8.728,22.812,1.625,14.727,2.26Z" transform="translate(0.001 -1.522)"/>
      </g>
    </g>
    <g id="组_333" data-name="组 333" transform="translate(0.229 4.848)">
      <g id="组_332" data-name="组 332">
        <path id="路径_455" data-name="路径 455" class="cls-2" d="M14.664,36.876C6.405,36.183.514,29.831.4,22.669S6.174,9.155,14.664,8.462s15.94,5.66,15.882,14.207A14.568,14.568,0,0,1,14.664,36.876Zm.173-25.989C6.694,11.408.514,15.8.63,22.669S6.867,34.8,14.837,35.375,29.795,30.812,29.91,22.669C29.968,14.526,22.98,10.368,14.837,10.888Z" transform="translate(-0.397 -8.41)"/>
      </g>
    </g>
    <g id="组_335" data-name="组 335" transform="translate(1.222 -0.022)">
      <g id="组_334" data-name="组 334">
        <path id="路径_456" data-name="路径 456" class="cls-2" d="M5.861,25.055A15.159,15.159,0,0,1,5.746,5.246c5.14-5.891,14.669-7.335,20.1-1.79,5.486,5.429,6.3,16.344-.058,21.715C19.375,30.484,10.539,30.542,5.861,25.055ZM25.439,3.918C20.241-1.338,11.29-.414,6.554,5.65c-4.62,5.949-4.736,13.745-.231,19,4.5,5.2,12.821,5.717,18.481,0C30.464,18.991,30.637,9.173,25.439,3.918Z" transform="translate(-2.117 0.022)"/>
      </g>
    </g>
    <g id="组_337" data-name="组 337" transform="translate(1.591 1.563)">
      <g id="组_336" data-name="组 336">
        <path id="路径_457" data-name="路径 457" class="cls-3" d="M8.037,26.214C2.435,19.746.76,10.852,5.611,6.174A13.85,13.85,0,0,1,25.074,7.329C30.1,12.7,32.408,24.309,27.21,29.449,22.071,34.646,13.639,32.625,8.037,26.214ZM23.976,8.138C17.912,2.016,10.462,2.594,6.189,7.5,1.857,12.412,2.55,18.014,8.037,24.135c5.486,6.064,13.687,9.645,18.6,4.736C31.6,23.9,30.04,14.26,23.976,8.138Z" transform="translate(-2.755 -2.722)"/>
      </g>
    </g>
    <g id="组_346" data-name="组 346" transform="translate(10.416 8.269)">
      <g id="组_338" data-name="组 338" transform="translate(0.119 9.823)">
        <rect id="矩形_628" data-name="矩形 628" class="cls-4" width="2.195" height="2.195" transform="matrix(0.96, -0.281, 0.281, 0.96, 0, 0.618)"/>
      </g>
      <g id="组_339" data-name="组 339" transform="translate(1.856 6.477)">
        <rect id="矩形_629" data-name="矩形 629" class="cls-4" width="2.195" height="2.195" transform="matrix(0.96, -0.281, 0.281, 0.96, 0, 0.618)"/>
      </g>
      <g id="组_340" data-name="组 340" transform="translate(0 1.623)">
        <rect id="矩形_630" data-name="矩形 630" class="cls-4" width="2.195" height="2.195" transform="matrix(0.96, -0.281, 0.281, 0.96, 0, 0.618)"/>
      </g>
      <g id="组_341" data-name="组 341" transform="translate(2.772 0.811)">
        <rect id="矩形_631" data-name="矩形 631" class="cls-4" width="2.195" height="2.195" transform="matrix(0.96, -0.281, 0.281, 0.96, 0, 0.618)"/>
      </g>
      <g id="组_342" data-name="组 342" transform="translate(3.534 3.409)">
        <rect id="矩形_632" data-name="矩形 632" class="cls-4" width="2.195" height="2.195" transform="matrix(0.96, -0.281, 0.281, 0.96, 0, 0.618)"/>
      </g>
      <g id="组_343" data-name="组 343" transform="translate(5.545 0)">
        <rect id="矩形_633" data-name="矩形 633" class="cls-4" width="2.195" height="2.195" transform="matrix(0.96, -0.281, 0.281, 0.96, 0, 0.618)"/>
      </g>
      <g id="组_344" data-name="组 344" transform="translate(6.306 2.597)">
        <rect id="矩形_634" data-name="矩形 634" class="cls-4" width="2.195" height="2.195" transform="matrix(0.96, -0.281, 0.281, 0.96, 0, 0.618)"/>
      </g>
      <g id="组_345" data-name="组 345" transform="translate(7.051 5.139)">
        <rect id="矩形_635" data-name="矩形 635" class="cls-4" width="2.195" height="2.195" transform="matrix(0.96, -0.281, 0.281, 0.96, 0, 0.618)"/>
      </g>
    </g>
    <g id="组_348" data-name="组 348" transform="translate(50.071 3.34)">
      <g id="组_347" data-name="组 347">
        <path id="路径_458" data-name="路径 458" class="cls-2" d="M86.7,5.8h8.028l6.3,16.748L107.2,5.8h7.912V32.655H109.05V13.828L101.6,32.713H99.637L92.129,13.828V32.713H86.7Z" transform="translate(-86.7 -5.8)"/>
      </g>
    </g>
    <g id="组_350" data-name="组 350" transform="translate(82.586 2.878)">
      <g id="组_349" data-name="组 349">
        <path id="路径_459" data-name="路径 459" class="cls-2" d="M143,23.885h5.833c.289,2.426,1.271,4.389,5.255,4.389,2.657,0,4.447-1.444,4.447-3.581s-1.155-2.888-5.082-3.523c-6.873-.924-9.7-2.945-9.7-8.143,0-4.562,3.812-8.028,9.76-8.028,6.064,0,9.587,2.714,10.049,8.028h-5.544c-.4-2.426-1.79-3.581-4.447-3.581s-4.043,1.213-4.043,3.061c0,1.906.866,2.83,5.024,3.407,6.526.809,9.818,2.6,9.818,8.143,0,4.793-3.927,8.547-10.28,8.547C146.754,32.721,143.347,29.314,143,23.885Z" transform="translate(-143 -5)"/>
      </g>
    </g>
    <g id="组_351" data-name="组 351" transform="translate(38.116 3.398)">
      <rect id="矩形_636" data-name="矩形 636" class="cls-2" width="5.371" height="26.682"/>
    </g>
    <g id="组_352" data-name="组 352" transform="translate(105.203 3.167)">
      <path id="路径_460" data-name="路径 460" class="cls-2" d="M245.685,14.856A41.208,41.208,0,0,0,247.014,5.5,22.467,22.467,0,0,1,237.6,7.579Z" transform="translate(-205.584 -5.5)"/>
      <path id="路径_461" data-name="路径 461" class="cls-2" d="M238.055,20.354l4.562-2.368-4.967-4.62a4.383,4.383,0,0,1-.693-.866H236.9a7.615,7.615,0,0,1,.289,1.04Z" transform="translate(-205.288 -8.457)"/>
      <path id="路径_462" data-name="路径 462" class="cls-2" d="M195.583,45.2a6.525,6.525,0,0,0,2.195-.693c1.906-.982,2.541-2.137,1.848-3.523a1.593,1.593,0,0,0-.866-.866,4.668,4.668,0,0,0-1.271-.4c-.462-.058-1.328-.058-2.6-.058a9.44,9.44,0,0,1-3.7-.52,3.621,3.621,0,0,1-1.675-1.675c-.058-.173-.116-.289-.173-.462A17.414,17.414,0,0,0,189,41.5l-6.815,1.906c-.173,1.328.751.751.751.751l6.295-1.675a33.732,33.732,0,0,0,4.678,2.657A3.275,3.275,0,0,0,195.583,45.2Z" transform="translate(-182.163 -18.808)"/>
      <path id="路径_463" data-name="路径 463" class="cls-2" d="M227.189,17.878l-5.717,2.945.578,4.389-1.964.982L218.3,9.851l1.5-.751c-3.638.116-7.219-.116-10.973,1.271C202.24,12.8,198.833,16.9,197.1,20.708a7.006,7.006,0,0,1,1.675-1.1,7.834,7.834,0,0,1,3.234-1.04l.982,1.906a6.018,6.018,0,0,0-3.581.751,4.009,4.009,0,0,0-1.79,1.559,1.917,1.917,0,0,0-.058,1.848,2.042,2.042,0,0,0,1.213,1.1,12.326,12.326,0,0,0,3.119.231,9.739,9.739,0,0,1,3.812.462,3.51,3.51,0,0,1,1.906,1.733,3.582,3.582,0,0,1,.115,3.407,6.585,6.585,0,0,1-3.119,2.83,6.773,6.773,0,0,1-.635.289c4.158.809,9.067.173,15.131-3.638,4.62-2.888,7.277-7.854,8.778-12.532Zm-11.146,2.483a5.541,5.541,0,0,1-2.945,3l-1.79.924,2.6,5.082-1.79.924-6.988-13.687L209,14.644a5.784,5.784,0,0,1,3.985-.693,4.22,4.22,0,0,1,2.772,2.426A4.435,4.435,0,0,1,216.043,20.362Z" transform="translate(-188.473 -7.021)"/>
      <path id="路径_464" data-name="路径 464" class="cls-2" d="M217.29,21.172l-1.79.924,2.772,5.429,1.617-.809a4.073,4.073,0,0,0,2.079-1.964,3.089,3.089,0,0,0-.231-2.541C220.871,20.479,219.369,20.133,217.29,21.172Z" transform="translate(-196.247 -11.874)"/>
    </g>
  </g>
</svg>
