<svg xmlns="http://www.w3.org/2000/svg" viewBox="0 0 14.403 14">
  <defs>
    <style>
      .cls-1 {
        fill: #9fcc43;
      }
    </style>
  </defs>
  <path id="Star" class="cls-1" d="M500.967,732.884l1.707,3.634a.664.664,0,0,0,.5.372l3.833.6a.664.664,0,0,1,.372,1.123l-2.8,2.863a.664.664,0,0,0-.179.578l.664,3.693a.664.664,0,0,1-.93.724l-3.488-1.588a.665.665,0,0,0-.551,0l-3.487,1.588a.664.664,0,0,1-.93-.724l.664-3.693a.664.664,0,0,0-.179-.578l-2.836-2.9a.664.664,0,0,1,.4-1.083l3.866-.591a.664.664,0,0,0,.5-.372l1.707-3.634a.664.664,0,0,1,1.176-.013Z" transform="translate(-493.166 -732.536)"/>
</svg>
