<svg xmlns="http://www.w3.org/2000/svg" viewBox="0 0 14 13.632">
  <defs>
    <style>
      .cls-1 {
        fill: inherit;
      }
    </style>
  </defs>
  <path id="Calendar" class="cls-1" d="M696.25,446.04h-.3v-.665a.875.875,0,0,0-1.75,0v.665h-6.417v-.665a.875.875,0,0,0-1.75,0v.665h-.286a1.75,1.75,0,0,0-1.75,1.75v8.593a1.75,1.75,0,0,0,1.75,1.75h10.5a1.75,1.75,0,0,0,1.75-1.75V447.79A1.75,1.75,0,0,0,696.25,446.04Zm-8.75,9.252a.583.583,0,1,1,.583-.583A.583.583,0,0,1,687.5,455.292Zm0-2.333a.583.583,0,1,1,.583-.583A.583.583,0,0,1,687.5,452.958Zm0-2.333a.583.583,0,1,1,.583-.583A.583.583,0,0,1,687.5,450.625Zm2.333,4.667a.583.583,0,1,1,.583-.583A.583.583,0,0,1,689.833,455.292Zm0-2.333a.583.583,0,1,1,.583-.583A.583.583,0,0,1,689.833,452.958Zm0-2.333a.583.583,0,1,1,.583-.583A.583.583,0,0,1,689.833,450.625Zm2.333,4.667a.583.583,0,1,1,.583-.583A.583.583,0,0,1,692.167,455.292Zm0-2.333a.583.583,0,1,1,.583-.583A.583.583,0,0,1,692.167,452.958Zm0-2.333a.583.583,0,1,1,.583-.583A.583.583,0,0,1,692.167,450.625Zm2.333,2.333a.583.583,0,1,1,.583-.583A.583.583,0,0,1,694.5,452.958Zm0-2.333a.583.583,0,1,1,.583-.583A.583.583,0,0,1,694.5,450.625Z" transform="translate(-684 -444.5)"/>
</svg>
