<svg xmlns="http://www.w3.org/2000/svg" viewBox="0 0 14 17.554">
  <defs>
    <style>
      .cls-1 {
        fill: inherit;
      }
    </style>
  </defs>
  <path id="Discont" class="cls-1" d="M399.367,1227.663l1.075-7.7a2.424,2.424,0,0,1,2.424-2.158h6.973a2.424,2.424,0,0,1,2.424,2.157l1.075,7.7a2.424,2.424,0,0,1-2.424,2.691h-9.131a2.424,2.424,0,0,1-2.416-2.691Zm10.205-11.631a3.232,3.232,0,0,0-6.464,0,.808.808,0,0,0,1.616,0,1.616,1.616,0,1,1,3.232,0,.808.808,0,0,0,1.616,0Z" transform="translate(-399.351 -1212.8)"/>
</svg>
