<svg xmlns="http://www.w3.org/2000/svg" viewBox="0 0 14 15.575">
  <defs>
    <style>
      .cls-1 {
        fill: #cacedb;
      }
    </style>
  </defs>
  <path id="Lock" class="cls-1" d="M218.667,930.443h0a.778.778,0,0,1-.778-.778v-.607a4.006,4.006,0,0,0-3.5-4.044,3.889,3.889,0,0,0-4.278,3.889v.778a.778.778,0,0,1-.778.778h0A2.333,2.333,0,0,0,207,932.792v5.444a2.333,2.333,0,0,0,2.333,2.333h9.333A2.333,2.333,0,0,0,221,938.237v-5.444a2.333,2.333,0,0,0-2.333-2.349Zm-7-1.556a2.333,2.333,0,0,1,2.8-2.287,2.4,2.4,0,0,1,1.867,2.38v.685a.778.778,0,0,1-.778.778h-3.111a.778.778,0,0,1-.778-.778Z" transform="translate(-207 -924.995)"/>
</svg>
