<svg xmlns="http://www.w3.org/2000/svg" viewBox="0 0 14 15.349">
  <defs>
    <style>
      .cls-1 {
        fill: #9fcc43;
      }
    </style>
  </defs>
  <path id="Gift" class="cls-1" d="M592.252,1214.088a2.462,2.462,0,0,1,1.565-1.432,2.908,2.908,0,0,1,2.284.636,2.425,2.425,0,0,1,1.954-1.413c.853,0,1.616.738,2.335,2.176a.636.636,0,0,1-1.139.566c-.694-1.387-1.145-1.47-1.234-1.47-.369,0-.84.815-1,1.082a2.765,2.765,0,0,1-.216.331c-.426.5-.974.1-1.273-.108s-.974-.706-1.425-.6q-.391.1-.725.764a.636.636,0,1,1-1.139-.566Zm9.475,2.323H590.273a1.273,1.273,0,0,0-1.273,1.273v.636a1.273,1.273,0,0,0,.872,1.209.636.636,0,0,1,.4.636v5.155a1.909,1.909,0,0,0,1.909,1.909h7.636a1.909,1.909,0,0,0,1.909-1.909v-5.186a.636.636,0,0,1,.4-.636,1.272,1.272,0,0,0,.872-1.177v-.636A1.273,1.273,0,0,0,601.727,1216.411Z" transform="translate(-589 -1211.88)"/>
</svg>
